<?xml version="1.0" encoding="UTF-8"?>
<svg width="24" height="24" viewBox="0 0 24 24" fill="none" xmlns="http://www.w3.org/2000/svg">
  <path d="M8.68 4C4.73 4.1 1 6.53 1 10.23C1 12.4 2.34 14.32 4.35 15.47L3.31 18.13L6.28 16.47C7.21 16.72 8.2 16.86 9.23 16.86C9.5 16.86 9.77 16.85 10.04 16.83C9.87 16.32 9.78 15.77 9.78 15.2C9.78 11.63 13.05 8.8 17.09 8.8C17.4 8.8 17.7 8.82 18 8.86C16.71 6.06 13 4 8.68 4Z" fill="white"/>
  <path d="M17.09 10.01C13.64 10.01 10.85 12.42 10.85 15.37C10.85 18.32 13.64 20.73 17.09 20.73C18 20.73 18.87 20.57 19.65 20.28L22 21.6L21.16 19.5C22.79 18.5 23.87 16.91 23.87 15.37C23.87 12.42 21.08 10.01 17.09 10.01ZM14.87 14.37C14.31 14.37 13.87 13.93 13.87 13.37C13.87 12.81 14.31 12.37 14.87 12.37C15.43 12.37 15.87 12.81 15.87 13.37C15.87 13.93 15.43 14.37 14.87 14.37ZM19.31 14.37C18.75 14.37 18.31 13.93 18.31 13.37C18.31 12.81 18.75 12.37 19.31 12.37C19.87 12.37 20.31 12.81 20.31 13.37C20.31 13.93 19.87 14.37 19.31 14.37Z" fill="white"/>
</svg> 